<svg width="45" height="92" viewBox="0 0 45 92" fill="#ABCB44" xmlns="http://www.w3.org/2000/svg">
<g id="Group 138">
<g id="Group 135">
<path id="Vector 134" d="M16.5927 29.6665C9.65937 78.9998 32.3705 91.7776 44.5927 91.9998V89.8332C18.326 84.6332 14.9816 47.5554 16.5927 29.6665Z" fill="#ABCB44"/>
<path id="Vector 135" d="M16.9264 19.3333C14.3708 16.6111 11.193 8.93333 18.9264 0C20.7597 3.66667 22.9264 12.6667 16.9264 19.3333Z" fill="#ABCB44"/>
<path id="Vector 141" d="M15.894 31.6654C12.2312 30.7095 6.16558 26.1192 11.2056 15.4047C14.4365 17.4484 19.8975 23.5619 15.894 31.6654Z" fill="#ABCB44"/>
<path id="Vector 142" d="M14.5626 41.5063C11.3235 40.7698 5.29723 36.7139 7.10453 26.3817C10.2261 28.1637 16.0879 33.6833 14.5626 41.5063Z" fill="#ABCB44"/>
<path id="Vector 143" d="M14.4659 52.1237C10.9494 52.0901 3.80321 49.2491 3.3498 38.154C6.97976 39.2956 14.2849 43.6877 14.4659 52.1237Z" fill="#ABCB44"/>
<path id="Vector 144" d="M15.3683 62.8104C11.997 62.8512 4.85234 60.2921 3.24416 49.7293C6.84141 50.742 14.3024 54.7759 15.3683 62.8104Z" fill="#ABCB44"/>
<path id="Vector 145" d="M20.2212 72.0447C17.0498 73.0215 9.66331 72.5653 5.48878 62.9267C9.13839 62.8929 17.1943 64.6693 20.2212 72.0447Z" fill="#ABCB44"/>
<path id="Vector 146" d="M25.9526 80.9863C22.9241 82.1864 15.5675 82.3555 10.3686 73.4315C13.9747 73.0988 22.1401 74.144 25.9526 80.9863Z" fill="#ABCB44"/>
<path id="Vector 136" d="M18.2115 25.4635C17.1899 22.3058 17.5479 14.9286 27.1531 10.6812C27.2359 14.324 25.5635 22.3806 18.2115 25.4635Z" fill="#ABCB44"/>
<path id="Vector 137" d="M17.1129 37.049C16.2193 33.8861 16.8275 26.5425 26.4092 22.4717C26.3638 26.1023 24.4411 34.1007 17.1129 37.049Z" fill="#ABCB44"/>
<path id="Vector 138" d="M17.1784 49.6868C15.8208 46.8942 15.3374 40.3159 24.2649 36.343C24.7578 39.5863 24.0307 46.7957 17.1784 49.6868Z" fill="#ABCB44"/>
<path id="Vector 139" d="M20.6564 64.1191C18.5702 61.4843 16.4784 54.5778 24.8005 48.0302C26.0966 51.3696 27.0823 59.2626 20.6564 64.1191Z" fill="#ABCB44"/>
<path id="Vector 140" d="M25.4887 77.5912C28.3664 75.9466 32.8791 70.358 27.909 61.1601C25.4716 63.7546 21.5751 70.6732 25.4887 77.5912Z" fill="#ABCB44"/>
</g>
</g>
</svg>
